<?xml version="1.0" encoding="UTF-8"?>
<svg id="Layer_2" data-name="Layer 2" xmlns="http://www.w3.org/2000/svg" viewBox="0 0 106.89 119.4">
  <defs>
    <style>
      .cls-1 {
        fill: #fcfcfc;
      }

      .cls-2 {
        fill: none;
        stroke: #fcfcfc;
        stroke-miterlimit: 10;
      }

      .cls-3 {
        fill: #fff;
      }

      .cls-4 {
        font-family: MyriadPro-Regular, 'Myriad Pro';
        font-size: 9.22px;
      }

      .cls-4, .cls-5 {
        fill: #68c9e0;
      }
    </style>
  </defs>
  <g id="Layer_1-2" data-name="Layer 1">
    <g id="Logo">
      <circle class="cls-3" cx="53.45" cy="53.45" r="40.41"/>
      <circle class="cls-2" cx="53.45" cy="53.45" r="52.95" transform="translate(-19.91 71.65) rotate(-58.94)"/>
      <text class="cls-4" transform="translate(26.75 94.75) rotate(29.2)"><tspan x="0" y="0">H</tspan></text>
      <text class="cls-4" transform="translate(32.45 97.86) rotate(22.42)"><tspan x="0" y="0">e</tspan></text>
      <text class="cls-4" transform="translate(37.02 99.68) rotate(18.11)"><tspan x="0" y="0">l</tspan></text>
      <text class="cls-4" transform="translate(39.29 100.42) rotate(15.33)"><tspan x="0" y="0">l</tspan></text>
      <text class="cls-4" transform="translate(41.59 101.04) rotate(12.68)"><tspan x="0" y="0"> </tspan></text>
      <text class="cls-4" transform="translate(43.8 101.62) rotate(7.67)"><tspan x="0" y="0">U</tspan></text>
      <text class="cls-4" transform="translate(50.26 102.42) rotate(.54)"><tspan x="0" y="0">n</tspan></text>
      <text class="cls-4" transform="translate(55.7 102.4) rotate(-4.13)"><tspan x="0" y="0">i</tspan></text>
      <text class="cls-4" transform="translate(58.14 102.26) rotate(-8.36)"><tspan x="0" y="0">v</tspan></text>
      <text class="cls-4" transform="translate(62.85 101.55) rotate(-14.1)"><tspan x="0" y="0">e</tspan></text>
      <text class="cls-4" transform="translate(67.65 100.3) rotate(-18.99)"><tspan x="0" y="0">r</tspan></text>
      <text class="cls-4" transform="translate(70.8 99.21) rotate(-23.26)"><tspan x="0" y="0">s</tspan></text>
      <text class="cls-4" transform="translate(74.33 97.65) rotate(-26.39)"><tspan x="0" y="0">i</tspan></text>
      <text class="cls-4" transform="translate(76.5 96.57) rotate(-30.18)"><tspan x="0" y="0">t</tspan></text>
      <text class="cls-4" transform="translate(79.5 94.84) rotate(-34.97)"><tspan x="0" y="0">y</tspan></text>
      <g>
        <path class="cls-5" d="M30.96,80.22v-34.62s1.44-25.18,23.21-25.18c21.77,0,21.77,25.18,21.77,25.18v34.62s0,2.63,0,2.63c-3.75,0-3.75-1.8-7.49-1.8s-3.75,1.8-7.49,1.8c-3.75,0-3.75-1.8-7.5-1.8s-3.75,1.8-7.49,1.8-3.75-1.8-7.5-1.8-3.75,1.8-7.5,1.8v-2.63Z"/>
        <path class="cls-1" d="M39.64,47.67c-.29.66-.45,1.35-.45,2.07,0,4.23,5.48,7.72,12.55,8.21.29-.66.45-1.35.45-2.07,0-4.23-5.48-7.72-12.55-8.21Z"/>
        <path class="cls-1" d="M67.71,49.73c0-.72-.16-1.43-.46-2.1-7.31.35-13.06,3.9-13.06,8.23,0,.72.16,1.43.46,2.1,7.31-.35,13.06-3.9,13.06-8.23Z"/>
        <ellipse class="cls-1" cx="53.45" cy="69.2" rx="7.37" ry="8.27"/>
      </g>
    </g>
  </g>
</svg>